<svg width="164" height="233" viewBox="0 0 164 233" fill="none" xmlns="http://www.w3.org/2000/svg">
<path d="M110 105C36.8822 63.0151 23.5 57.5 18.5 55C13.5 52.5 0.824133 58.5168 3.32817 68.5132C5.8322 78.5096 13.3443 83.5078 13.3443 83.5078C13.3443 83.5078 21.9609 89.5492 27.8677 88.506C31.8317 87.8059 34.2448 86.5487 36.8822 83.5078C41.9206 77.6985 36.8822 63.8169 36.8822 63.8169" stroke="white" stroke-width="6"/>
<path d="M52 153C136.384 206.583 160.493 221.993 162 223" stroke="white" stroke-width="6"/>
<path d="M113 5C111.189 158.684 112.245 193.662 113 191.94" stroke="white" stroke-width="6"/>
<path d="M56 4C56 4 56 83.2318 56 134M56 134C51.965 137.197 35.6233 142.003 30.5 141.5M56 134C50.3013 138.134 37.5294 141.891 30.5 141.5M3 123.5C3 123.5 17.7261 140.245 30.5 141.5" stroke="white" stroke-width="6"/>
<path d="M9 3C100.229 4.8111 129.012 3.75462 132 3" stroke="white" stroke-width="6"/>
</svg>
