<svg width="198" height="198" viewBox="0 0 198 198" fill="none" xmlns="http://www.w3.org/2000/svg">
<path d="M89.5 159.5L47.5 132.5" stroke="white" stroke-width="6"/>
<path d="M97.5 118C97.5 118 102.194 140.806 97.5 145.5C90.8611 152.139 82.6562 137.638 80.5 128.5C79.5584 124.509 78.3452 121.489 80.5 118C83.9887 112.352 97.5 118 97.5 118ZM97.5 118L153 145.5C153 145.5 174 167 182.5 164C191 161 194.5 145.5 194.5 145.5" stroke="white" stroke-width="6"/>
<path d="M113 63.5L154.5 87V54.5V113L194.5 131.5" stroke="white" stroke-width="6"/>
<path d="M110 92.5V170L87 157.5L152 194.5" stroke="white" stroke-width="6"/>
<path d="M111.5 6V61.5C111.5 61.5 83.294 39.4644 62 38.5C38.3822 37.4304 6 61.5 6 61.5L48 94C48 94 55.4461 84.9832 62 82C71.7745 77.5509 79.1257 79.2234 89.5 82C98.9538 84.5302 111.5 94 111.5 94" stroke="white" stroke-width="6"/>
<path d="M0 3.5H167" stroke="white" stroke-width="6"/>
</svg>
