<svg width="148" height="166" viewBox="0 0 148 166" fill="none" xmlns="http://www.w3.org/2000/svg">
<path d="M109.5 41.5V144L146 163" stroke="white" stroke-width="6"/>
<path d="M24.5 22.5C24.5 22.5 30.1872 31.7614 35.5 34.5C41.401 37.5419 46.7211 37.7679 52.5 34.5C52.5 34.5 55.691 24.6897 61 22.5C64.7907 20.9366 71.5 22.5 71.5 22.5C76.2763 24.8647 78 34.5 78 34.5L110.5 59.5" stroke="white" stroke-width="6"/>
<path d="M82 7V62.5C82 62.5 62.891 46.1244 48 45C35.958 44.0907 27.8788 45.5541 18 52.5C11.0871 57.3605 4 69 4 69L28 93.5C28 93.5 44.2957 74.9368 57.5 76.5C63.8399 77.2505 67.6359 78.865 72.5 83C80.7363 90.0017 84.1409 98.4039 82 109C78.9491 124.1 68 131 48 128C28 125 4 109 4 109" stroke="white" stroke-width="6"/>
<path d="M8.5 3H146" stroke="white" stroke-width="6"/>
</svg>
