<svg width="180" height="239" viewBox="0 0 180 239" fill="none" xmlns="http://www.w3.org/2000/svg">
<path d="M92 97.5C92 97.5 62.7259 66.6937 41.5 72.5C30.0482 75.6327 23.7436 80.7286 17 90.5C9.89835 100.79 7.07372 109.146 8.99999 121.5C11.8082 139.51 41.5 155 41.5 155L162.5 236.5" stroke="white" stroke-width="6"/>
<path d="M127 104.5L93.25 83M59.5 61.5L93.25 83M93.25 83C93.25 83 99.7308 133.906 79.5 133C70.6874 132.605 63.5379 130.343 59.5 122.5C56.2824 116.25 54.7976 109.725 59.5 104.5C64.725 98.6945 79.5 104.5 79.5 104.5" stroke="white" stroke-width="6"/>
<path d="M129 5V182L177.5 215.5" stroke="white" stroke-width="6"/>
<path d="M0 3H134" stroke="white" stroke-width="6"/>
</svg>
