<svg width="126" height="148" viewBox="0 0 126 148" fill="none" xmlns="http://www.w3.org/2000/svg">
<path d="M7 3H125.5" stroke="white" stroke-width="6"/>
<path d="M74 5.5V129L99 145" stroke="white" stroke-width="6"/>
<path d="M43 64.5L72.5 84.5" stroke="white" stroke-width="6"/>
<path d="M41 6C41 6 41 42.8733 41 66.5M41 66.5C41 80.9494 41 103.5 41 103.5C41 103.5 31.6958 113.818 24 113.5C16.8026 113.203 12.7372 109.326 8.5 103.5C3.90292 97.1797 2.87244 91.7336 4 84C5.13562 76.2111 7.54768 71.0083 14 66.5C22.6434 60.4608 32.3566 60.4608 41 66.5Z" stroke="white" stroke-width="6"/>
</svg>
