<svg width="166" height="226" viewBox="0 0 166 226" fill="none" xmlns="http://www.w3.org/2000/svg">
<path d="M163 207.417L161.114 205.191L134.703 182.93L116.782 168.46C116.782 168.46 109.979 161.145 104.52 159.555C100.229 158.306 93.2013 159.555 93.2013 159.555L83.7691 167.347L77.1664 177.364C77.1664 177.364 58.1123 172.583 65.8477 177.364C73.5831 182.146 77.9201 184.827 85.6555 189.608L96.031 196.287M104.52 202.965L101.69 200.739L96.031 196.287M96.031 196.287C96.031 196.287 100.885 188.723 105.463 187.382C109.812 186.108 116.782 189.608 116.782 189.608L134.703 207.417L151.681 223" stroke="white" stroke-width="6"/>
<path d="M79 74L115 102" stroke="white" stroke-width="6"/>
<path d="M115 4V163" stroke="white" stroke-width="6"/>
<path d="M8 3H142" stroke="white" stroke-width="6"/>
<path d="M77.5 5.5V107.5L19.5 70C24 70.1667 33.5 69.5 35.5 65.5C38 60.5 42.5 23.5 72 51.5C95.6 73.9 86.1667 64.8333 78.5 57.5" stroke="white" stroke-width="6"/>
</svg>
