<svg width="136" height="162" viewBox="0 0 136 162" fill="none" xmlns="http://www.w3.org/2000/svg">
<path d="M83 91C83 91 74.2337 79.509 71.5 84C70.0787 86.3351 71.5 91 71.5 91C71.5 91 78.9774 96.0426 77.5 100C75.7927 104.573 66.7074 95.4267 65 100C63.4837 104.062 71.5 109 71.5 109L83 117" stroke="white" stroke-width="6"/>
<path d="M84 68.5C84 68.5 63.9458 47.0178 47 45.5C34.7831 44.4057 21.333 41.7265 16.5 53C14.115 58.5634 16.5 68.5 16.5 68.5V85.5L123.5 159.5" stroke="white" stroke-width="6"/>
<path d="M84 3.5V118L134 149.5" stroke="white" stroke-width="6"/>
<path d="M0 3.5H87" stroke="white" stroke-width="6"/>
</svg>
